Saattai (2012) - DVD Rip - 1CD x264 AC3 - Team XDN

Format                                   : MPEG-4
Format profile                           : Base Media
Codec ID                                 : isom
File size                                : 750 MiB
Duration                                 : 2h 15mn
Overall bit rate                         : 773 Kbps
Encoded date                             : UTC 2013-03-05 16:49:41
Tagged date                              : UTC 2013-03-05 16:49:41

Video
ID                                       : 1
Format                                   : AVC
Format/Info                              : Advanced Video Codec
Format profile                           : High@L2.1
Format settings, CABAC                   : Yes
Format settings, ReFrames                : 4 frames
Codec ID                                 : avc1
Codec ID/Info                            : Advanced Video Coding
Duration                                 : 2h 15mn
Bit rate                                 : 642 Kbps
Maximum bit rate                         : 2 696 Kbps
Width                                    : 608 pixels
Height                                   : 252 pixels
Display aspect ratio                     : 2.40:1
Frame rate mode                          : Constant
Frame rate                               : 25.000 fps
Color space                              : YUV
Chroma subsampling                       : 4:2:0
Bit depth                                : 8 bits
Scan type                                : Progressive
Bits/(Pixel*Frame)                       : 0.168
Stream size                              : 623 MiB (83%)
Encoded date                             : UTC 2013-03-04 18:55:33
Tagged date                              : UTC 2013-03-05 16:50:38

Audio
ID                                       : 2
Format                                   : AC-3
Format/Info                              : Audio Coding 3
Mode extension                           : CM (complete main)
Format settings, Endianness              : Big
Codec ID                                 : ac-3
Duration                                 : 2h 15mn
Bit rate mode                            : Constant
Bit rate                                 : 128 Kbps
Channel(s)                               : 2 channels
Channel positions                        : Front: L R
Sampling rate                            : 44.1 KHz
Bit depth                                : 16 bits
Compression mode                         : Lossy
Delay relative to video                  : 80ms
Stream size                              : 124 MiB (17%)
 
http://img19.imageshack.us/img19/5189/vlcsnap2013030216h14m43.png 
http://img687.imageshack.us/img687/2853/vlcsnap2013030216h16m21.png 
http://img856.imageshack.us/img856/2853/vlcsnap2013030216h16m21.png 
http://img35.imageshack.us/img35/4363/vlcsnap2013030216h15m43.png 
http://img255.imageshack.us/img255/2600/vlcsnap2013030216h15m56.png 
http://img547.imageshack.us/img547/5897/vlcsnap2013030216h16m06.png 
http://img843.imageshack.us/img843/7197/vlcsnap2013030216h16m13.png